<svg width="440" height="124" xmlns="http://www.w3.org/2000/svg" xmlns:xlink="http://www.w3.org/1999/xlink" xml:space="preserve" overflow="hidden"><g transform="translate(-260 -208)"><g><g><g><g><path d="M174.068 17.2107 174.068 38.5171C171.829 38.0172 169.54 37.7788 167.247 37.8069 162.415 37.8069 158.459 39.3705 155.38 42.4974 152.301 45.6243 150.762 50.4564 150.762 56.9936L150.762 87.8313 129.17 87.8313 129.17 17.2107 150.06 17.2107 150.06 26.7311C151.766 23.1321 154.372 20.5265 157.877 18.9144 161.381 17.3022 164.89 16.494 168.404 16.4896 170.316 16.4607 172.223 16.7035 174.068 17.2107Z" fill="#5B46D5" fill-rule="nonzero" fill-opacity="1" transform="matrix(1.00525 0 0 1 261 209)"/><path d="M218.7 15.0692C229.406 15.0692 238.338 18.5745 245.497 25.5851 252.655 32.5958 256.233 41.5491 256.226 52.4447 256.226 63.3376 252.649 72.3148 245.497 79.3763 238.344 86.4377 229.412 89.9663 218.7 89.9619 208.091 89.9619 199.185 86.4093 191.984 79.3044 184.784 72.1994 181.183 63.2461 181.183 52.4447 181.183 41.6434 184.784 32.7112 191.984 25.6483 199.185 18.5854 208.091 15.059 218.7 15.0692ZM218.7 70.0672C223.153 70.0672 226.92 68.5509 229.998 65.5184 233.077 62.4858 234.617 58.1286 234.617 52.4469 234.617 46.7624 233.077 42.4277 229.998 39.443 226.92 36.4584 223.153 34.9667 218.7 34.9682 214.343 34.9682 210.601 36.4839 207.474 39.5149 204.347 42.546 202.784 46.8567 202.786 52.4469 202.786 58.0387 204.348 62.3732 207.474 65.4508 210.6 68.5285 214.342 70.0672 218.7 70.0672Z" fill="#5B46D5" fill-rule="nonzero" fill-opacity="1" transform="matrix(1.00525 0 0 1 261 209)"/><path d="M265.171 91.8094 284.214 86.4109C284.972 89.914 286.702 92.7564 289.401 94.9378 292.101 97.1192 295.443 98.2085 299.423 98.2056 311.076 98.2056 316.902 92.1891 316.904 80.1562L316.904 76.8883C313.396 82.1953 307.096 84.8482 298.002 84.8466 288.621 84.8466 280.805 81.5788 274.552 75.0431 268.3 68.5074 265.178 60.3122 265.184 50.4579 265.184 40.9855 268.287 32.8616 274.493 26.0862 280.7 19.3109 288.543 15.9232 298.022 15.9232 303.231 15.9232 307.494 16.8236 310.812 18.6246 314.13 20.4256 316.403 22.4626 317.634 24.7355L317.634 17.2107 338.238 17.2107 338.238 79.0211C338.238 90.0099 335.064 99.0808 328.718 106.234 322.372 113.387 312.941 116.964 300.425 116.965 290.761 116.965 282.731 114.478 276.337 109.504 269.942 104.529 266.219 98.6311 265.171 91.8094ZM291.035 61.8235C293.878 64.6672 297.525 66.0885 301.978 66.087 306.431 66.0854 310.054 64.6644 312.849 61.8235 315.645 58.9826 317.041 55.1935 317.043 50.4557 317.043 45.8154 315.575 42.0493 312.638 39.1576 309.701 36.266 306.148 34.8208 301.978 34.8223 297.809 34.8223 294.231 36.2673 291.249 39.1576 288.266 42.048 286.774 45.8138 286.772 50.4557 286.772 55.1948 288.192 58.9842 291.035 61.8235Z" fill="#5B46D5" fill-rule="nonzero" fill-opacity="1" transform="matrix(1.00525 0 0 1 261 209)"/><path d="M388.81 15.0692C399.513 15.0692 408.445 18.5745 415.606 25.5851 422.767 32.5958 426.344 41.5491 426.336 52.4447 426.336 63.3376 422.758 72.3148 415.606 79.3763 408.454 86.4377 399.522 89.9663 388.81 89.9619 378.198 89.9619 369.292 86.4093 362.092 79.3044 354.891 72.1994 351.292 63.2461 351.29 52.4447 351.29 41.6434 354.891 32.7112 362.092 25.6483 369.292 18.5854 378.198 15.059 388.81 15.0692ZM388.81 70.0672C393.26 70.0672 397.027 68.5509 400.108 65.5184 403.188 62.4858 404.728 58.1286 404.726 52.4469 404.726 46.7624 403.186 42.4277 400.108 39.443 397.029 36.4584 393.263 34.9661 388.81 34.9661 384.452 34.9661 380.71 36.4817 377.581 39.5127 374.453 42.5438 372.891 46.8545 372.893 52.4447 372.893 58.0365 374.455 62.371 377.581 65.4486 380.708 68.5263 384.45 70.0657 388.81 70.0672Z" fill="#5B46D5" fill-rule="nonzero" fill-opacity="1" transform="matrix(1.00525 0 0 1 261 209)"/><path d="M43.8851 5.03468C36.5841 5.04285 30.0421 9.54624 27.4282 16.3632 33.433 16.4519 39.1653 18.8841 43.4015 23.1408L43.4472 23.1865C45.3361 25.1059 43.3732 28.2779 40.8003 27.4849 39.9737 27.2256 39.2108 26.7958 38.5607 26.2235 35.1674 23.2789 30.7754 21.7454 26.2866 21.9382 16.5637 22.3436 9.01033 30.5545 9.41579 40.2774 9.61059 44.9494 11.6546 49.3525 15.0975 52.5166 7.92665 59.0935 7.44514 70.2382 14.022 77.4092 17.1885 80.8616 21.5995 82.9108 26.2801 83.1038 26.6834 92.5381 34.4423 99.9829 43.8851 99.9964 44.0507 99.9964 44.2163 99.9964 44.3797 99.9964 47.9519 99.9025 51.3812 98.5745 54.0852 96.2384L54.0852 8.80143C51.3816 6.46447 47.9521 5.13581 44.3797 5.04121 44.225 5.03686 44.0507 5.03468 43.8851 5.03468Z" fill="#5B46D5" fill-rule="nonzero" fill-opacity="1" transform="matrix(1.00525 0 0 1 261 209)"/><path d="M98.637 52.5166C105.809 45.9411 106.292 34.7964 99.7169 27.6243 96.5504 24.1704 92.1383 22.1203 87.4566 21.9273 87.0533 12.493 79.2943 5.04821 69.8515 5.03468 69.686 5.03468 69.5204 5.03468 69.357 5.03468 65.7833 5.13204 62.3533 6.46291 59.6493 8.80143L59.6493 96.2319C62.3529 98.5695 65.7822 99.8995 69.3548 99.9964L69.8515 99.9964C77.1526 99.9882 83.6946 95.4848 86.3085 88.6679 80.3039 88.5788 74.5716 86.1466 70.3352 81.8903L70.2894 81.8424C68.4006 79.9252 70.3635 76.7511 72.9364 77.5441 73.7645 77.8044 74.5294 78.2338 75.1825 78.8055 78.5761 81.7496 82.9681 83.2831 87.4566 83.0907 97.1774 82.6916 104.734 74.4878 104.335 64.767 104.143 60.0839 102.092 55.6706 98.637 52.5036Z" fill="#5B46D5" fill-rule="nonzero" fill-opacity="1" transform="matrix(1.00525 0 0 1 261 209)"/></g></g></g></g></g></svg>