<svg width="38" height="39" xmlns="http://www.w3.org/2000/svg" xmlns:xlink="http://www.w3.org/1999/xlink" xml:space="preserve" overflow="hidden"><g transform="translate(-912 -477)"><g><g><g><g><path d="M926.381 480.106C923.712 480.106 921.429 481.782 920.525 484.136 922.674 484.174 924.687 485.027 926.208 486.548 926.214 486.553 926.22 486.559 926.225 486.565 926.897 487.247 926.198 488.376 925.283 488.094 924.988 488.002 924.716 487.849 924.484 487.645 923.24 486.565 921.669 486.057 920.117 486.121L920.117 486.117C916.779 486.253 914.106 489.01 914.106 492.381 914.107 494.137 914.844 495.813 916.138 497 914.844 498.188 914.107 499.863 914.106 501.619 914.106 504.99 916.779 507.747 920.117 507.883 920.253 511.221 923.01 513.894 926.381 513.894 926.44 513.894 926.499 513.894 926.557 513.891 927.828 513.858 929.048 513.385 930.01 512.554L930.01 481.446C929.048 480.615 927.828 480.143 926.557 480.109 926.499 480.107 926.44 480.106 926.381 480.106Z" fill="#5B46D5" fill-rule="nonzero" fill-opacity="1"/><path d="M945.862 497C947.156 495.813 947.893 494.137 947.894 492.381 947.894 489.01 945.221 486.253 941.883 486.117 941.747 482.779 938.99 480.106 935.619 480.106 935.56 480.106 935.501 480.106 935.444 480.109 934.172 480.142 932.952 480.615 931.99 481.446L931.99 512.554C932.952 513.385 934.172 513.857 935.443 513.891 935.501 513.893 935.56 513.893 935.619 513.893 938.288 513.893 940.571 512.217 941.475 509.863 939.326 509.825 937.313 508.973 935.792 507.452L935.775 507.435C935.103 506.753 935.802 505.623 936.717 505.905 937.012 505.998 937.284 506.151 937.516 506.354 938.76 507.435 940.331 507.942 941.883 507.879L941.883 507.883C945.221 507.747 947.894 504.989 947.894 501.619 947.893 499.863 947.156 498.187 945.862 497Z" fill="#5B46D5" fill-rule="nonzero" fill-opacity="1"/></g></g></g></g></g></svg>